<svg xmlns="http://www.w3.org/2000/svg" xmlns:xlink="http://www.w3.org/1999/xlink" width="64" zoomAndPan="magnify" viewBox="0 0 48 48" height="64" preserveAspectRatio="xMidYMid meet" version="1.0"><defs><clipPath id="9642f41c9a"><path d="M 0.488281 0 L 47.507812 0 L 47.507812 47.019531 L 0.488281 47.019531 Z M 0.488281 0 " clip-rule="nonzero"/></clipPath><clipPath id="e11123a8a0"><path d="M 24 0 C 11.015625 0 0.488281 10.527344 0.488281 23.511719 C 0.488281 36.496094 11.015625 47.019531 24 47.019531 C 36.984375 47.019531 47.511719 36.496094 47.511719 23.511719 C 47.511719 10.527344 36.984375 0 24 0 " clip-rule="nonzero"/></clipPath><clipPath id="d1b8eb6e49"><path d="M 10.203125 7.988281 L 38.121094 7.988281 L 38.121094 41.023438 L 10.203125 41.023438 Z M 10.203125 7.988281 " clip-rule="nonzero"/></clipPath><clipPath id="02a9384052"><path d="M 14 3.5625 L 34 3.5625 L 34 12 L 14 12 Z M 14 3.5625 " clip-rule="nonzero"/></clipPath></defs><g clip-path="url(#9642f41c9a)"><g clip-path="url(#e11123a8a0)"><path fill="#ffe061" d="M 0.488281 0 L 47.511719 0 L 47.511719 47.019531 L 0.488281 47.019531 Z M 0.488281 0 " fill-opacity="1" fill-rule="nonzero"/></g></g><g clip-path="url(#d1b8eb6e49)"><path fill="#0a3749" d="M 11.964844 8.792969 C 11.441406 8.792969 11.015625 9.214844 11.015625 9.726562 L 11.015625 39.289062 C 11.015625 39.804688 11.441406 40.222656 11.964844 40.222656 L 36.359375 40.222656 C 36.882812 40.222656 37.308594 39.804688 37.308594 39.289062 L 37.308594 9.726562 C 37.308594 9.214844 36.882812 8.792969 36.359375 8.792969 L 33.226562 8.792969 L 33.226562 10.109375 C 33.226562 10.902344 32.574219 11.542969 31.769531 11.542969 L 16.207031 11.542969 C 15.402344 11.542969 14.75 10.902344 14.75 10.109375 L 14.75 8.792969 Z M 36.359375 41.023438 L 11.964844 41.023438 C 10.992188 41.023438 10.203125 40.246094 10.203125 39.289062 L 10.203125 9.726562 C 10.203125 8.773438 10.992188 7.992188 11.964844 7.992188 L 15.5625 7.992188 L 15.5625 10.109375 C 15.5625 10.460938 15.851562 10.742188 16.207031 10.742188 L 31.769531 10.742188 C 32.125 10.742188 32.414062 10.460938 32.414062 10.109375 L 32.414062 7.992188 L 36.359375 7.992188 C 37.332031 7.992188 38.121094 8.773438 38.121094 9.726562 L 38.121094 39.289062 C 38.121094 40.246094 37.332031 41.023438 36.359375 41.023438 " fill-opacity="1" fill-rule="nonzero"/></g><g clip-path="url(#02a9384052)"><path fill="#0a3749" d="M 16.207031 6.738281 C 15.851562 6.738281 15.5625 7.023438 15.5625 7.371094 L 15.5625 10.109375 C 15.5625 10.460938 15.851562 10.742188 16.207031 10.742188 L 31.769531 10.742188 C 32.125 10.742188 32.414062 10.460938 32.414062 10.109375 L 32.414062 7.371094 C 32.414062 7.023438 32.125 6.738281 31.769531 6.738281 L 28.261719 6.738281 C 27.613281 6.738281 27.019531 6.363281 26.71875 5.761719 C 26.292969 4.917969 25.296875 4.371094 24.1875 4.371094 C 23.074219 4.371094 22.082031 4.917969 21.65625 5.761719 C 21.351562 6.363281 20.757812 6.738281 20.109375 6.738281 Z M 31.769531 11.542969 L 16.207031 11.542969 C 15.402344 11.542969 14.75 10.902344 14.75 10.109375 L 14.75 7.371094 C 14.75 6.582031 15.402344 5.9375 16.207031 5.9375 L 20.109375 5.9375 C 20.449219 5.9375 20.761719 5.734375 20.925781 5.402344 C 21.488281 4.289062 22.769531 3.570312 24.1875 3.570312 C 25.605469 3.570312 26.882812 4.289062 27.445312 5.402344 C 27.609375 5.734375 27.925781 5.9375 28.261719 5.9375 L 31.769531 5.9375 C 32.574219 5.9375 33.226562 6.582031 33.226562 7.371094 L 33.226562 10.109375 C 33.226562 10.902344 32.574219 11.542969 31.769531 11.542969 " fill-opacity="1" fill-rule="nonzero"/></g><path fill="#0a3749" d="M 24.84375 7.972656 C 24.84375 8.34375 24.539062 8.644531 24.160156 8.644531 C 23.785156 8.644531 23.480469 8.34375 23.480469 7.972656 C 23.480469 7.601562 23.785156 7.296875 24.160156 7.296875 C 24.539062 7.296875 24.84375 7.601562 24.84375 7.972656 " fill-opacity="1" fill-rule="nonzero"/><path fill="#0a3749" d="M 32.78125 18.097656 L 25.65625 18.097656 C 25.285156 18.097656 24.980469 17.800781 24.980469 17.429688 C 24.980469 17.0625 25.285156 16.761719 25.65625 16.761719 L 32.78125 16.761719 C 33.15625 16.761719 33.457031 17.0625 33.457031 17.429688 C 33.457031 17.800781 33.15625 18.097656 32.78125 18.097656 " fill-opacity="1" fill-rule="nonzero"/><path fill="#0a3749" d="M 32.78125 25.316406 L 25.65625 25.316406 C 25.285156 25.316406 24.980469 25.015625 24.980469 24.648438 C 24.980469 24.28125 25.285156 23.980469 25.65625 23.980469 L 32.78125 23.980469 C 33.15625 23.980469 33.457031 24.28125 33.457031 24.648438 C 33.457031 25.015625 33.15625 25.316406 32.78125 25.316406 " fill-opacity="1" fill-rule="nonzero"/><path fill="#0a3749" d="M 16.894531 18.234375 C 17.027344 18.433594 17.175781 18.625 17.328125 18.808594 C 17.480469 18.992188 17.652344 19.15625 17.832031 19.308594 L 17.910156 19.378906 L 17.945312 19.40625 C 18.207031 19.597656 18.582031 19.542969 18.777344 19.285156 C 19.042969 18.933594 19.285156 18.554688 19.558594 18.210938 C 19.828125 17.859375 20.101562 17.515625 20.363281 17.15625 C 20.628906 16.804688 20.890625 16.445312 21.148438 16.082031 C 21.40625 15.722656 21.664062 15.363281 21.914062 14.996094 C 21.929688 14.972656 21.929688 14.941406 21.910156 14.917969 C 21.886719 14.890625 21.847656 14.886719 21.820312 14.910156 C 21.472656 15.191406 21.136719 15.484375 20.800781 15.773438 C 20.460938 16.0625 20.125 16.355469 19.796875 16.652344 C 19.460938 16.945312 19.140625 17.25 18.8125 17.546875 C 18.65625 17.699219 18.492188 17.839844 18.328125 17.980469 C 18.300781 17.957031 18.273438 17.929688 18.242188 17.90625 C 18.058594 17.753906 17.867188 17.609375 17.664062 17.476562 C 17.460938 17.34375 17.25 17.21875 17.027344 17.105469 C 16.804688 16.992188 16.570312 16.890625 16.308594 16.8125 C 16.296875 16.808594 16.28125 16.808594 16.265625 16.8125 C 16.230469 16.824219 16.207031 16.863281 16.21875 16.902344 C 16.296875 17.15625 16.402344 17.390625 16.515625 17.605469 C 16.628906 17.828125 16.757812 18.035156 16.894531 18.234375 " fill-opacity="1" fill-rule="nonzero"/><path fill="#0a3749" d="M 21.820312 22.128906 C 21.472656 22.410156 21.136719 22.703125 20.800781 22.992188 C 20.460938 23.28125 20.125 23.574219 19.796875 23.871094 C 19.460938 24.164062 19.140625 24.46875 18.8125 24.765625 C 18.65625 24.914062 18.492188 25.058594 18.328125 25.199219 C 18.300781 25.171875 18.273438 25.148438 18.242188 25.121094 C 18.058594 24.972656 17.867188 24.828125 17.664062 24.695312 C 17.460938 24.5625 17.25 24.433594 17.027344 24.324219 C 16.804688 24.210938 16.570312 24.109375 16.308594 24.03125 C 16.296875 24.027344 16.28125 24.027344 16.265625 24.03125 C 16.230469 24.042969 16.207031 24.082031 16.21875 24.121094 C 16.296875 24.375 16.402344 24.605469 16.515625 24.824219 C 16.628906 25.046875 16.757812 25.253906 16.894531 25.453125 C 17.027344 25.652344 17.175781 25.84375 17.328125 26.023438 C 17.480469 26.207031 17.652344 26.371094 17.832031 26.527344 L 17.910156 26.59375 L 17.945312 26.621094 C 18.207031 26.816406 18.582031 26.761719 18.777344 26.503906 C 19.042969 26.152344 19.285156 25.773438 19.558594 25.429688 C 19.828125 25.078125 20.101562 24.734375 20.363281 24.375 C 20.628906 24.019531 20.890625 23.660156 21.148438 23.300781 C 21.40625 22.941406 21.664062 22.582031 21.914062 22.210938 C 21.929688 22.191406 21.929688 22.160156 21.910156 22.136719 C 21.886719 22.109375 21.847656 22.105469 21.820312 22.128906 " fill-opacity="1" fill-rule="nonzero"/><path fill="#0a3749" d="M 21.820312 29.347656 C 21.472656 29.628906 21.136719 29.921875 20.800781 30.210938 C 20.460938 30.5 20.125 30.792969 19.796875 31.089844 C 19.460938 31.378906 19.140625 31.683594 18.8125 31.984375 C 18.65625 32.132812 18.492188 32.273438 18.328125 32.414062 C 18.300781 32.390625 18.273438 32.363281 18.242188 32.339844 C 18.058594 32.191406 17.867188 32.046875 17.664062 31.914062 C 17.460938 31.78125 17.25 31.652344 17.027344 31.542969 C 16.804688 31.425781 16.570312 31.324219 16.308594 31.25 C 16.296875 31.246094 16.28125 31.246094 16.265625 31.25 C 16.230469 31.261719 16.207031 31.300781 16.21875 31.335938 C 16.296875 31.59375 16.402344 31.824219 16.515625 32.042969 C 16.628906 32.265625 16.757812 32.472656 16.894531 32.671875 C 17.027344 32.871094 17.175781 33.0625 17.328125 33.242188 C 17.480469 33.425781 17.652344 33.589844 17.832031 33.746094 L 17.910156 33.8125 L 17.945312 33.839844 C 18.207031 34.035156 18.582031 33.980469 18.777344 33.722656 C 19.042969 33.371094 19.285156 32.992188 19.558594 32.648438 C 19.828125 32.296875 20.101562 31.949219 20.363281 31.59375 C 20.628906 31.238281 20.890625 30.878906 21.148438 30.519531 C 21.40625 30.160156 21.664062 29.800781 21.914062 29.429688 C 21.929688 29.40625 21.929688 29.378906 21.910156 29.355469 C 21.886719 29.328125 21.847656 29.324219 21.820312 29.347656 " fill-opacity="1" fill-rule="nonzero"/><path fill="#0a3749" d="M 32.78125 32.535156 L 25.65625 32.535156 C 25.285156 32.535156 24.980469 32.234375 24.980469 31.867188 C 24.980469 31.5 25.285156 31.199219 25.65625 31.199219 L 32.78125 31.199219 C 33.15625 31.199219 33.457031 31.5 33.457031 31.867188 C 33.457031 32.234375 33.15625 32.535156 32.78125 32.535156 " fill-opacity="1" fill-rule="nonzero"/></svg>