<svg xmlns="http://www.w3.org/2000/svg" xmlns:xlink="http://www.w3.org/1999/xlink" width="260" zoomAndPan="magnify" viewBox="0 0 194.87999 48" height="64" preserveAspectRatio="xMidYMid meet" version="1.0"><defs><g/><clipPath id="ed72203e94"><path d="M 2.46875 7.679688 L 34.222656 7.679688 L 34.222656 46.097656 L 2.46875 46.097656 Z M 2.46875 7.679688 " clip-rule="nonzero"/></clipPath><clipPath id="b2d64f9295"><path d="M 7 2.535156 L 29 2.535156 L 29 12 L 7 12 Z M 7 2.535156 " clip-rule="nonzero"/></clipPath></defs><g clip-path="url(#ed72203e94)"><path fill="#ffffff" d="M 4.472656 8.617188 C 3.878906 8.617188 3.394531 9.101562 3.394531 9.703125 L 3.394531 44.082031 C 3.394531 44.679688 3.878906 45.167969 4.472656 45.167969 L 32.21875 45.167969 C 32.8125 45.167969 33.296875 44.679688 33.296875 44.082031 L 33.296875 9.703125 C 33.296875 9.101562 32.8125 8.617188 32.21875 8.617188 L 28.652344 8.617188 L 28.652344 10.148438 C 28.652344 11.066406 27.910156 11.8125 27 11.8125 L 9.296875 11.8125 C 8.386719 11.8125 7.640625 11.066406 7.640625 10.148438 L 7.640625 8.617188 Z M 32.21875 46.097656 L 4.472656 46.097656 C 3.367188 46.097656 2.46875 45.191406 2.46875 44.082031 L 2.46875 9.703125 C 2.46875 8.589844 3.367188 7.683594 4.472656 7.683594 L 8.566406 7.683594 L 8.566406 10.148438 C 8.566406 10.550781 8.894531 10.882812 9.296875 10.882812 L 27 10.882812 C 27.402344 10.882812 27.730469 10.550781 27.730469 10.148438 L 27.730469 7.683594 L 32.21875 7.683594 C 33.324219 7.683594 34.222656 8.589844 34.222656 9.703125 L 34.222656 44.082031 C 34.222656 45.191406 33.324219 46.097656 32.21875 46.097656 " fill-opacity="1" fill-rule="nonzero"/></g><g clip-path="url(#b2d64f9295)"><path fill="#ffffff" d="M 9.296875 6.226562 C 8.894531 6.226562 8.566406 6.554688 8.566406 6.960938 L 8.566406 10.148438 C 8.566406 10.550781 8.894531 10.882812 9.296875 10.882812 L 27 10.882812 C 27.402344 10.882812 27.730469 10.550781 27.730469 10.148438 L 27.730469 6.960938 C 27.730469 6.554688 27.402344 6.226562 27 6.226562 L 23.011719 6.226562 C 22.273438 6.226562 21.597656 5.789062 21.25 5.085938 C 20.769531 4.105469 19.636719 3.472656 18.375 3.472656 C 17.109375 3.472656 15.976562 4.105469 15.496094 5.085938 C 15.148438 5.789062 14.476562 6.226562 13.734375 6.226562 Z M 27 11.8125 L 9.296875 11.8125 C 8.382812 11.8125 7.640625 11.066406 7.640625 10.148438 L 7.640625 6.960938 C 7.640625 6.042969 8.382812 5.292969 9.296875 5.292969 L 13.734375 5.292969 C 14.121094 5.292969 14.476562 5.054688 14.667969 4.671875 C 15.304688 3.378906 16.761719 2.542969 18.375 2.542969 C 19.988281 2.542969 21.441406 3.378906 22.082031 4.671875 C 22.269531 5.054688 22.625 5.292969 23.011719 5.292969 L 27 5.292969 C 27.910156 5.292969 28.652344 6.042969 28.652344 6.960938 L 28.652344 10.148438 C 28.652344 11.066406 27.910156 11.8125 27 11.8125 " fill-opacity="1" fill-rule="nonzero"/></g><path fill="#ffffff" d="M 19.121094 7.660156 C 19.121094 8.089844 18.773438 8.441406 18.34375 8.441406 C 17.917969 8.441406 17.570312 8.089844 17.570312 7.660156 C 17.570312 7.226562 17.917969 6.875 18.34375 6.875 C 18.773438 6.875 19.121094 7.226562 19.121094 7.660156 " fill-opacity="1" fill-rule="nonzero"/><path fill="#ffffff" d="M 28.148438 19.4375 L 20.046875 19.4375 C 19.621094 19.4375 19.277344 19.089844 19.277344 18.660156 C 19.277344 18.230469 19.621094 17.882812 20.046875 17.882812 L 28.148438 17.882812 C 28.574219 17.882812 28.917969 18.230469 28.917969 18.660156 C 28.917969 19.089844 28.574219 19.4375 28.148438 19.4375 " fill-opacity="1" fill-rule="nonzero"/><path fill="#ffffff" d="M 28.148438 27.832031 L 20.046875 27.832031 C 19.621094 27.832031 19.277344 27.484375 19.277344 27.054688 C 19.277344 26.625 19.621094 26.277344 20.046875 26.277344 L 28.148438 26.277344 C 28.574219 26.277344 28.917969 26.625 28.917969 27.054688 C 28.917969 27.484375 28.574219 27.832031 28.148438 27.832031 " fill-opacity="1" fill-rule="nonzero"/><path fill="#ffffff" d="M 10.078125 19.597656 C 10.234375 19.828125 10.398438 20.046875 10.574219 20.261719 C 10.746094 20.472656 10.941406 20.664062 11.148438 20.84375 L 11.238281 20.925781 L 11.277344 20.957031 C 11.574219 21.179688 12 21.117188 12.222656 20.816406 C 12.527344 20.40625 12.796875 19.96875 13.113281 19.566406 C 13.417969 19.160156 13.730469 18.757812 14.027344 18.339844 C 14.328125 17.929688 14.625 17.511719 14.917969 17.09375 C 15.210938 16.671875 15.507812 16.253906 15.789062 15.828125 C 15.808594 15.800781 15.808594 15.765625 15.785156 15.738281 C 15.761719 15.707031 15.714844 15.703125 15.683594 15.730469 C 15.289062 16.058594 14.90625 16.394531 14.523438 16.734375 C 14.136719 17.070312 13.757812 17.410156 13.382812 17.753906 C 13 18.09375 12.636719 18.449219 12.261719 18.796875 C 12.085938 18.972656 11.898438 19.136719 11.710938 19.296875 C 11.675781 19.269531 11.648438 19.238281 11.613281 19.210938 C 11.402344 19.035156 11.1875 18.871094 10.953125 18.714844 C 10.722656 18.558594 10.484375 18.410156 10.230469 18.28125 C 9.976562 18.148438 9.710938 18.03125 9.414062 17.941406 C 9.398438 17.9375 9.382812 17.9375 9.367188 17.941406 C 9.324219 17.953125 9.296875 18 9.3125 18.042969 C 9.402344 18.339844 9.519531 18.609375 9.652344 18.867188 C 9.78125 19.125 9.925781 19.363281 10.078125 19.597656 " fill-opacity="1" fill-rule="nonzero"/><path fill="#ffffff" d="M 15.683594 24.125 C 15.289062 24.453125 14.90625 24.789062 14.523438 25.128906 C 14.136719 25.464844 13.757812 25.804688 13.382812 26.148438 C 13 26.488281 12.636719 26.84375 12.261719 27.191406 C 12.085938 27.367188 11.898438 27.53125 11.710938 27.691406 C 11.675781 27.664062 11.648438 27.632812 11.613281 27.605469 C 11.402344 27.429688 11.1875 27.265625 10.953125 27.109375 C 10.722656 26.953125 10.484375 26.804688 10.230469 26.675781 C 9.976562 26.542969 9.710938 26.425781 9.414062 26.335938 C 9.398438 26.332031 9.382812 26.332031 9.367188 26.335938 C 9.324219 26.347656 9.296875 26.394531 9.3125 26.4375 C 9.402344 26.734375 9.519531 27.003906 9.652344 27.261719 C 9.78125 27.519531 9.925781 27.757812 10.078125 27.992188 C 10.234375 28.222656 10.398438 28.441406 10.574219 28.65625 C 10.746094 28.867188 10.941406 29.058594 11.148438 29.238281 L 11.238281 29.320312 L 11.277344 29.351562 C 11.574219 29.574219 12 29.511719 12.222656 29.210938 C 12.527344 28.800781 12.796875 28.363281 13.113281 27.960938 C 13.417969 27.554688 13.730469 27.152344 14.027344 26.734375 C 14.328125 26.324219 14.625 25.90625 14.917969 25.488281 C 15.210938 25.066406 15.507812 24.648438 15.789062 24.222656 C 15.808594 24.195312 15.808594 24.160156 15.785156 24.132812 C 15.761719 24.101562 15.714844 24.097656 15.683594 24.125 " fill-opacity="1" fill-rule="nonzero"/><path fill="#ffffff" d="M 15.683594 32.519531 C 15.289062 32.847656 14.90625 33.183594 14.523438 33.523438 C 14.136719 33.859375 13.757812 34.199219 13.382812 34.542969 C 13 34.882812 12.636719 35.238281 12.261719 35.585938 C 12.085938 35.761719 11.898438 35.925781 11.710938 36.085938 C 11.675781 36.058594 11.648438 36.027344 11.613281 36 C 11.402344 35.824219 11.1875 35.660156 10.953125 35.503906 C 10.722656 35.347656 10.484375 35.199219 10.230469 35.070312 C 9.976562 34.9375 9.710938 34.820312 9.414062 34.730469 C 9.398438 34.726562 9.382812 34.726562 9.367188 34.730469 C 9.324219 34.742188 9.296875 34.789062 9.3125 34.832031 C 9.402344 35.128906 9.519531 35.398438 9.652344 35.65625 C 9.78125 35.914062 9.925781 36.152344 10.078125 36.386719 C 10.234375 36.617188 10.398438 36.835938 10.574219 37.050781 C 10.746094 37.261719 10.941406 37.453125 11.148438 37.632812 L 11.238281 37.714844 L 11.277344 37.746094 C 11.574219 37.96875 12 37.90625 12.222656 37.605469 C 12.527344 37.195312 12.796875 36.757812 13.113281 36.355469 C 13.417969 35.949219 13.730469 35.546875 14.027344 35.128906 C 14.328125 34.71875 14.625 34.300781 14.917969 33.882812 C 15.210938 33.460938 15.507812 33.042969 15.789062 32.617188 C 15.808594 32.589844 15.808594 32.554688 15.785156 32.527344 C 15.761719 32.496094 15.714844 32.492188 15.683594 32.519531 " fill-opacity="1" fill-rule="nonzero"/><path fill="#ffffff" d="M 28.148438 36.226562 L 20.046875 36.226562 C 19.621094 36.226562 19.277344 35.878906 19.277344 35.449219 C 19.277344 35.019531 19.621094 34.671875 20.046875 34.671875 L 28.148438 34.671875 C 28.574219 34.671875 28.917969 35.019531 28.917969 35.449219 C 28.917969 35.878906 28.574219 36.226562 28.148438 36.226562 " fill-opacity="1" fill-rule="nonzero"/><g fill="#ffe061" fill-opacity="1"><g transform="translate(36.716637, 27.746966)"><g><path d="M 7.546875 0 L 7.546875 -18.671875 L 0.359375 -18.671875 L 0.359375 -21.234375 L 17.84375 -21.234375 L 17.84375 -18.671875 L 10.65625 -18.671875 L 10.65625 0 Z M 7.546875 0 "/></g></g></g><g fill="#ffe061" fill-opacity="1"><g transform="translate(54.909312, 27.746966)"><g><path d="M 15.03125 -7.453125 L 4.296875 -7.453125 C 4.390625 -3.929688 5.988281 -2.171875 9.09375 -2.171875 C 10.820312 -2.171875 12.40625 -2.738281 13.84375 -3.875 L 14.765625 -1.734375 C 14.085938 -1.128906 13.226562 -0.65625 12.1875 -0.3125 C 11.144531 0.03125 10.09375 0.203125 9.03125 0.203125 C 6.625 0.203125 4.734375 -0.484375 3.359375 -1.859375 C 1.992188 -3.242188 1.3125 -5.140625 1.3125 -7.546875 C 1.3125 -9.078125 1.613281 -10.4375 2.21875 -11.625 C 2.820312 -12.820312 3.671875 -13.75 4.765625 -14.40625 C 5.859375 -15.0625 7.101562 -15.390625 8.5 -15.390625 C 10.53125 -15.390625 12.125 -14.734375 13.28125 -13.421875 C 14.445312 -12.109375 15.03125 -10.289062 15.03125 -7.96875 Z M 8.5625 -13.15625 C 7.425781 -13.15625 6.5 -12.816406 5.78125 -12.140625 C 5.070312 -11.460938 4.617188 -10.5 4.421875 -9.25 L 12.375 -9.25 C 12.257812 -10.519531 11.875 -11.488281 11.21875 -12.15625 C 10.5625 -12.820312 9.675781 -13.15625 8.5625 -13.15625 Z M 8.5625 -13.15625 "/></g></g></g><g fill="#ffe061" fill-opacity="1"><g transform="translate(71.193247, 27.746966)"><g><path d="M 7.453125 0.203125 C 4.828125 0.203125 2.757812 -0.429688 1.25 -1.703125 L 2.140625 -3.875 C 3.710938 -2.6875 5.515625 -2.09375 7.546875 -2.09375 C 8.578125 -2.09375 9.359375 -2.265625 9.890625 -2.609375 C 10.429688 -2.953125 10.703125 -3.445312 10.703125 -4.09375 C 10.703125 -4.625 10.519531 -5.039062 10.15625 -5.34375 C 9.789062 -5.65625 9.171875 -5.921875 8.296875 -6.140625 L 5.78125 -6.734375 C 4.46875 -7.015625 3.46875 -7.507812 2.78125 -8.21875 C 2.101562 -8.925781 1.765625 -9.804688 1.765625 -10.859375 C 1.765625 -12.210938 2.304688 -13.304688 3.390625 -14.140625 C 4.472656 -14.972656 5.910156 -15.390625 7.703125 -15.390625 C 8.773438 -15.390625 9.789062 -15.21875 10.75 -14.875 C 11.71875 -14.539062 12.539062 -14.066406 13.21875 -13.453125 L 12.296875 -11.328125 C 10.835938 -12.484375 9.304688 -13.0625 7.703125 -13.0625 C 6.722656 -13.0625 5.960938 -12.878906 5.421875 -12.515625 C 4.890625 -12.148438 4.625 -11.640625 4.625 -10.984375 C 4.625 -10.460938 4.789062 -10.039062 5.125 -9.71875 C 5.46875 -9.40625 6.003906 -9.160156 6.734375 -8.984375 L 9.3125 -8.359375 C 10.738281 -8.035156 11.796875 -7.53125 12.484375 -6.84375 C 13.171875 -6.15625 13.515625 -5.265625 13.515625 -4.171875 C 13.515625 -2.816406 12.972656 -1.75 11.890625 -0.96875 C 10.804688 -0.1875 9.328125 0.203125 7.453125 0.203125 Z M 7.453125 0.203125 "/></g></g></g><g fill="#ffe061" fill-opacity="1"><g transform="translate(86.04563, 27.746966)"><g><path d="M 6.109375 -12.703125 L 6.109375 -5.15625 C 6.109375 -4.125 6.332031 -3.394531 6.78125 -2.96875 C 7.226562 -2.539062 7.851562 -2.328125 8.65625 -2.328125 C 9.164062 -2.328125 9.691406 -2.40625 10.234375 -2.5625 L 10.234375 -0.125 C 9.578125 0.09375 8.832031 0.203125 8 0.203125 C 6.445312 0.203125 5.242188 -0.234375 4.390625 -1.109375 C 3.535156 -1.984375 3.109375 -3.253906 3.109375 -4.921875 L 3.109375 -12.703125 L 0.171875 -12.703125 L 0.171875 -15.03125 L 3.109375 -15.03125 L 3.109375 -18.796875 L 6.109375 -19.828125 L 6.109375 -15.03125 L 10.265625 -15.03125 L 10.265625 -12.703125 Z M 6.109375 -12.703125 "/></g></g></g><g fill="#ffe061" fill-opacity="1"><g transform="translate(96.871759, 27.746966)"><g><path d="M 22.578125 -15.03125 L 25.53125 -15.03125 L 19.8125 0 L 17.0625 0 L 13.03125 -10.890625 L 9.03125 0 L 6.296875 0 L 0.5625 -15.03125 L 3.703125 -15.03125 L 7.78125 -3.546875 L 11.9375 -15.03125 L 14.3125 -15.03125 L 18.46875 -3.546875 Z M 22.578125 -15.03125 "/></g></g></g><g fill="#ffe061" fill-opacity="1"><g transform="translate(122.997638, 27.746966)"><g><path d="M 8.6875 0.203125 C 7.207031 0.203125 5.910156 -0.113281 4.796875 -0.75 C 3.679688 -1.382812 2.820312 -2.285156 2.21875 -3.453125 C 1.613281 -4.628906 1.3125 -6.003906 1.3125 -7.578125 C 1.3125 -9.148438 1.613281 -10.523438 2.21875 -11.703125 C 2.820312 -12.890625 3.679688 -13.800781 4.796875 -14.4375 C 5.910156 -15.070312 7.207031 -15.390625 8.6875 -15.390625 C 10.132812 -15.390625 11.414062 -15.070312 12.53125 -14.4375 C 13.644531 -13.800781 14.503906 -12.890625 15.109375 -11.703125 C 15.710938 -10.523438 16.015625 -9.148438 16.015625 -7.578125 C 16.015625 -6.003906 15.710938 -4.628906 15.109375 -3.453125 C 14.503906 -2.285156 13.644531 -1.382812 12.53125 -0.75 C 11.414062 -0.113281 10.132812 0.203125 8.6875 0.203125 Z M 8.65625 -2.171875 C 10.039062 -2.171875 11.101562 -2.628906 11.84375 -3.546875 C 12.582031 -4.460938 12.953125 -5.804688 12.953125 -7.578125 C 12.953125 -9.304688 12.578125 -10.632812 11.828125 -11.5625 C 11.078125 -12.5 10.03125 -12.96875 8.6875 -12.96875 C 7.3125 -12.96875 6.242188 -12.5 5.484375 -11.5625 C 4.734375 -10.632812 4.359375 -9.304688 4.359375 -7.578125 C 4.359375 -5.804688 4.726562 -4.460938 5.46875 -3.546875 C 6.21875 -2.628906 7.28125 -2.171875 8.65625 -2.171875 Z M 8.65625 -2.171875 "/></g></g></g><g fill="#ffe061" fill-opacity="1"><g transform="translate(140.32542, 27.746966)"><g><path d="M 9.6875 -15.390625 C 10.144531 -15.390625 10.625 -15.320312 11.125 -15.1875 L 11.0625 -12.4375 C 10.53125 -12.632812 9.945312 -12.734375 9.3125 -12.734375 C 7.9375 -12.734375 6.90625 -12.320312 6.21875 -11.5 C 5.53125 -10.675781 5.1875 -9.632812 5.1875 -8.375 L 5.1875 0 L 2.203125 0 L 2.203125 -10.796875 C 2.203125 -12.367188 2.125 -13.78125 1.96875 -15.03125 L 4.765625 -15.03125 L 5.046875 -12.3125 C 5.441406 -13.3125 6.054688 -14.070312 6.890625 -14.59375 C 7.722656 -15.125 8.65625 -15.390625 9.6875 -15.390625 Z M 9.6875 -15.390625 "/></g></g></g><g fill="#ffe061" fill-opacity="1"><g transform="translate(151.539266, 27.746966)"><g><path d="M 19.359375 -15.390625 C 22.703125 -15.390625 24.375 -13.378906 24.375 -9.359375 L 24.375 0 L 21.359375 0 L 21.359375 -9.21875 C 21.359375 -10.507812 21.132812 -11.453125 20.6875 -12.046875 C 20.238281 -12.648438 19.515625 -12.953125 18.515625 -12.953125 C 17.367188 -12.953125 16.460938 -12.550781 15.796875 -11.75 C 15.128906 -10.957031 14.796875 -9.875 14.796875 -8.5 L 14.796875 0 L 11.78125 0 L 11.78125 -9.21875 C 11.78125 -10.507812 11.554688 -11.453125 11.109375 -12.046875 C 10.660156 -12.648438 9.941406 -12.953125 8.953125 -12.953125 C 7.796875 -12.953125 6.878906 -12.550781 6.203125 -11.75 C 5.523438 -10.957031 5.1875 -9.875 5.1875 -8.5 L 5.1875 0 L 2.203125 0 L 2.203125 -10.796875 C 2.203125 -12.367188 2.125 -13.78125 1.96875 -15.03125 L 4.765625 -15.03125 L 5.046875 -12.53125 C 5.484375 -13.445312 6.109375 -14.148438 6.921875 -14.640625 C 7.734375 -15.140625 8.6875 -15.390625 9.78125 -15.390625 C 12.113281 -15.390625 13.632812 -14.425781 14.34375 -12.5 C 14.800781 -13.394531 15.472656 -14.097656 16.359375 -14.609375 C 17.242188 -15.128906 18.242188 -15.390625 19.359375 -15.390625 Z M 19.359375 -15.390625 "/></g></g></g><g fill="#ffe061" fill-opacity="1"><g transform="translate(178.023031, 27.746966)"><g><path d="M 7.453125 0.203125 C 4.828125 0.203125 2.757812 -0.429688 1.25 -1.703125 L 2.140625 -3.875 C 3.710938 -2.6875 5.515625 -2.09375 7.546875 -2.09375 C 8.578125 -2.09375 9.359375 -2.265625 9.890625 -2.609375 C 10.429688 -2.953125 10.703125 -3.445312 10.703125 -4.09375 C 10.703125 -4.625 10.519531 -5.039062 10.15625 -5.34375 C 9.789062 -5.65625 9.171875 -5.921875 8.296875 -6.140625 L 5.78125 -6.734375 C 4.46875 -7.015625 3.46875 -7.507812 2.78125 -8.21875 C 2.101562 -8.925781 1.765625 -9.804688 1.765625 -10.859375 C 1.765625 -12.210938 2.304688 -13.304688 3.390625 -14.140625 C 4.472656 -14.972656 5.910156 -15.390625 7.703125 -15.390625 C 8.773438 -15.390625 9.789062 -15.21875 10.75 -14.875 C 11.71875 -14.539062 12.539062 -14.066406 13.21875 -13.453125 L 12.296875 -11.328125 C 10.835938 -12.484375 9.304688 -13.0625 7.703125 -13.0625 C 6.722656 -13.0625 5.960938 -12.878906 5.421875 -12.515625 C 4.890625 -12.148438 4.625 -11.640625 4.625 -10.984375 C 4.625 -10.460938 4.789062 -10.039062 5.125 -9.71875 C 5.46875 -9.40625 6.003906 -9.160156 6.734375 -8.984375 L 9.3125 -8.359375 C 10.738281 -8.035156 11.796875 -7.53125 12.484375 -6.84375 C 13.171875 -6.15625 13.515625 -5.265625 13.515625 -4.171875 C 13.515625 -2.816406 12.972656 -1.75 11.890625 -0.96875 C 10.804688 -0.1875 9.328125 0.203125 7.453125 0.203125 Z M 7.453125 0.203125 "/></g></g></g><g fill="#ffffff" fill-opacity="1"><g transform="translate(36.716637, 43.220409)"><g><path d="M 2.765625 0 L 1.5625 0 L 1.5625 -10.3125 L 2.765625 -10.3125 Z M 2.765625 0 "/></g></g></g><g fill="#ffffff" fill-opacity="1"><g transform="translate(41.049824, 43.220409)"><g><path d="M 1.359375 0 L 1.359375 -7.78125 L 2.453125 -7.78125 L 2.453125 -6.5625 L 2.59375 -6.515625 C 2.851562 -6.972656 3.179688 -7.320312 3.578125 -7.5625 C 3.984375 -7.800781 4.472656 -7.921875 5.046875 -7.921875 C 5.984375 -7.921875 6.660156 -7.679688 7.078125 -7.203125 C 7.503906 -6.734375 7.71875 -6 7.71875 -5 L 7.71875 0 L 6.5625 0 L 6.5625 -4.984375 C 6.5625 -5.453125 6.5 -5.828125 6.375 -6.109375 C 6.257812 -6.390625 6.078125 -6.59375 5.828125 -6.71875 C 5.578125 -6.851562 5.25 -6.921875 4.84375 -6.921875 C 4.144531 -6.921875 3.578125 -6.6875 3.140625 -6.21875 C 2.710938 -5.757812 2.5 -5.015625 2.5 -3.984375 L 2.5 0 Z M 1.359375 0 "/></g></g></g><g fill="#ffffff" fill-opacity="1"><g transform="translate(49.998019, 43.220409)"><g><path d="M 3.546875 0.140625 C 3.054688 0.140625 2.601562 0.078125 2.1875 -0.046875 C 1.769531 -0.171875 1.414062 -0.347656 1.125 -0.578125 C 0.84375 -0.804688 0.644531 -1.0625 0.53125 -1.34375 L 1.203125 -2.046875 L 1.359375 -2.046875 C 1.609375 -1.660156 1.910156 -1.367188 2.265625 -1.171875 C 2.628906 -0.972656 3.054688 -0.875 3.546875 -0.875 C 4.117188 -0.875 4.550781 -0.984375 4.84375 -1.203125 C 5.144531 -1.429688 5.296875 -1.75 5.296875 -2.15625 C 5.296875 -2.457031 5.207031 -2.707031 5.03125 -2.90625 C 4.851562 -3.101562 4.5625 -3.253906 4.15625 -3.359375 L 2.84375 -3.6875 C 2.144531 -3.851562 1.632812 -4.117188 1.3125 -4.484375 C 0.988281 -4.847656 0.828125 -5.300781 0.828125 -5.84375 C 0.828125 -6.269531 0.929688 -6.640625 1.140625 -6.953125 C 1.359375 -7.265625 1.671875 -7.503906 2.078125 -7.671875 C 2.484375 -7.835938 2.96875 -7.921875 3.53125 -7.921875 C 4.25 -7.921875 4.8125 -7.820312 5.21875 -7.625 C 5.632812 -7.425781 5.957031 -7.144531 6.1875 -6.78125 L 5.53125 -6.15625 L 5.390625 -6.15625 C 5.140625 -6.4375 4.867188 -6.640625 4.578125 -6.765625 C 4.285156 -6.898438 3.9375 -6.96875 3.53125 -6.96875 C 3.019531 -6.96875 2.628906 -6.875 2.359375 -6.6875 C 2.085938 -6.507812 1.953125 -6.242188 1.953125 -5.890625 C 1.953125 -5.578125 2.046875 -5.320312 2.234375 -5.125 C 2.429688 -4.9375 2.769531 -4.785156 3.25 -4.671875 L 4.53125 -4.359375 C 5.207031 -4.191406 5.695312 -3.921875 6 -3.546875 C 6.300781 -3.179688 6.453125 -2.722656 6.453125 -2.171875 C 6.453125 -1.710938 6.34375 -1.304688 6.125 -0.953125 C 5.90625 -0.609375 5.578125 -0.335938 5.140625 -0.140625 C 4.703125 0.046875 4.171875 0.140625 3.546875 0.140625 Z M 3.546875 0.140625 "/></g></g></g><g fill="#ffffff" fill-opacity="1"><g transform="translate(57.184759, 43.220409)"><g><path d="M 5.265625 -1.234375 L 5.625 -0.40625 C 5.4375 -0.226562 5.191406 -0.09375 4.890625 0 C 4.597656 0.09375 4.28125 0.140625 3.9375 0.140625 C 2.445312 0.140625 1.703125 -0.609375 1.703125 -2.109375 L 1.703125 -6.84375 L 0.359375 -6.84375 L 0.359375 -7.78125 L 1.703125 -7.78125 L 1.703125 -9.421875 L 2.859375 -9.609375 L 2.859375 -7.78125 L 5.359375 -7.78125 L 5.359375 -6.84375 L 2.859375 -6.84375 L 2.859375 -2.21875 C 2.859375 -1.320312 3.242188 -0.875 4.015625 -0.875 C 4.441406 -0.875 4.804688 -0.992188 5.109375 -1.234375 Z M 5.265625 -1.234375 "/></g></g></g><g fill="#ffffff" fill-opacity="1"><g transform="translate(63.103251, 43.220409)"><g><path d="M 3.203125 0.140625 C 2.441406 0.140625 1.84375 -0.0546875 1.40625 -0.453125 C 0.976562 -0.847656 0.765625 -1.421875 0.765625 -2.171875 C 0.765625 -2.628906 0.859375 -3.015625 1.046875 -3.328125 C 1.242188 -3.648438 1.539062 -3.910156 1.9375 -4.109375 C 2.332031 -4.304688 2.851562 -4.457031 3.5 -4.5625 C 4.0625 -4.65625 4.488281 -4.757812 4.78125 -4.875 C 5.082031 -5 5.28125 -5.132812 5.375 -5.28125 C 5.476562 -5.425781 5.53125 -5.609375 5.53125 -5.828125 C 5.53125 -6.179688 5.410156 -6.453125 5.171875 -6.640625 C 4.929688 -6.828125 4.539062 -6.921875 4 -6.921875 C 3.5 -6.921875 3.066406 -6.820312 2.703125 -6.625 C 2.347656 -6.4375 2.019531 -6.148438 1.71875 -5.765625 L 1.578125 -5.765625 L 1.015625 -6.5625 C 1.347656 -6.976562 1.765625 -7.304688 2.265625 -7.546875 C 2.773438 -7.796875 3.351562 -7.921875 4 -7.921875 C 4.914062 -7.921875 5.59375 -7.71875 6.03125 -7.3125 C 6.46875 -6.914062 6.6875 -6.363281 6.6875 -5.65625 L 6.6875 -1.53125 C 6.6875 -1.09375 6.867188 -0.875 7.234375 -0.875 C 7.359375 -0.875 7.472656 -0.894531 7.578125 -0.9375 L 7.6875 -0.921875 L 7.8125 -0.125 C 7.726562 -0.0625 7.617188 -0.015625 7.484375 0.015625 C 7.347656 0.046875 7.207031 0.0625 7.0625 0.0625 C 6.632812 0.0625 6.3125 -0.03125 6.09375 -0.21875 C 5.875 -0.40625 5.734375 -0.6875 5.671875 -1.0625 L 5.515625 -1.078125 C 5.296875 -0.660156 5 -0.351562 4.625 -0.15625 C 4.25 0.0390625 3.773438 0.140625 3.203125 0.140625 Z M 3.46875 -0.765625 C 3.894531 -0.765625 4.265625 -0.863281 4.578125 -1.0625 C 4.898438 -1.269531 5.144531 -1.550781 5.3125 -1.90625 C 5.476562 -2.269531 5.5625 -2.691406 5.5625 -3.171875 L 5.5625 -4.15625 L 5.4375 -4.1875 C 5.257812 -4.0625 5.046875 -3.957031 4.796875 -3.875 C 4.546875 -3.789062 4.195312 -3.71875 3.75 -3.65625 C 3.300781 -3.59375 2.941406 -3.492188 2.671875 -3.359375 C 2.410156 -3.234375 2.222656 -3.070312 2.109375 -2.875 C 2.003906 -2.6875 1.953125 -2.453125 1.953125 -2.171875 C 1.953125 -1.710938 2.082031 -1.363281 2.34375 -1.125 C 2.613281 -0.882812 2.988281 -0.765625 3.46875 -0.765625 Z M 3.46875 -0.765625 "/></g></g></g><g fill="#ffffff" fill-opacity="1"><g transform="translate(71.142541, 43.220409)"><g><path d="M 1.359375 0 L 1.359375 -7.78125 L 2.453125 -7.78125 L 2.453125 -6.5625 L 2.59375 -6.515625 C 2.851562 -6.972656 3.179688 -7.320312 3.578125 -7.5625 C 3.984375 -7.800781 4.472656 -7.921875 5.046875 -7.921875 C 5.984375 -7.921875 6.660156 -7.679688 7.078125 -7.203125 C 7.503906 -6.734375 7.71875 -6 7.71875 -5 L 7.71875 0 L 6.5625 0 L 6.5625 -4.984375 C 6.5625 -5.453125 6.5 -5.828125 6.375 -6.109375 C 6.257812 -6.390625 6.078125 -6.59375 5.828125 -6.71875 C 5.578125 -6.851562 5.25 -6.921875 4.84375 -6.921875 C 4.144531 -6.921875 3.578125 -6.6875 3.140625 -6.21875 C 2.710938 -5.757812 2.5 -5.015625 2.5 -3.984375 L 2.5 0 Z M 1.359375 0 "/></g></g></g><g fill="#ffffff" fill-opacity="1"><g transform="translate(80.090737, 43.220409)"><g><path d="M 5.265625 -1.234375 L 5.625 -0.40625 C 5.4375 -0.226562 5.191406 -0.09375 4.890625 0 C 4.597656 0.09375 4.28125 0.140625 3.9375 0.140625 C 2.445312 0.140625 1.703125 -0.609375 1.703125 -2.109375 L 1.703125 -6.84375 L 0.359375 -6.84375 L 0.359375 -7.78125 L 1.703125 -7.78125 L 1.703125 -9.421875 L 2.859375 -9.609375 L 2.859375 -7.78125 L 5.359375 -7.78125 L 5.359375 -6.84375 L 2.859375 -6.84375 L 2.859375 -2.21875 C 2.859375 -1.320312 3.242188 -0.875 4.015625 -0.875 C 4.441406 -0.875 4.804688 -0.992188 5.109375 -1.234375 Z M 5.265625 -1.234375 "/></g></g></g><g fill="#ffffff" fill-opacity="1"><g transform="translate(86.009229, 43.220409)"><g/></g></g><g fill="#ffffff" fill-opacity="1"><g transform="translate(89.546232, 43.220409)"><g><path d="M 5.265625 -1.234375 L 5.625 -0.40625 C 5.4375 -0.226562 5.191406 -0.09375 4.890625 0 C 4.597656 0.09375 4.28125 0.140625 3.9375 0.140625 C 2.445312 0.140625 1.703125 -0.609375 1.703125 -2.109375 L 1.703125 -6.84375 L 0.359375 -6.84375 L 0.359375 -7.78125 L 1.703125 -7.78125 L 1.703125 -9.421875 L 2.859375 -9.609375 L 2.859375 -7.78125 L 5.359375 -7.78125 L 5.359375 -6.84375 L 2.859375 -6.84375 L 2.859375 -2.21875 C 2.859375 -1.320312 3.242188 -0.875 4.015625 -0.875 C 4.441406 -0.875 4.804688 -0.992188 5.109375 -1.234375 Z M 5.265625 -1.234375 "/></g></g></g><g fill="#ffffff" fill-opacity="1"><g transform="translate(95.464724, 43.220409)"><g><path d="M 7.40625 -3.625 L 2.0625 -3.625 C 2.09375 -2.675781 2.316406 -1.976562 2.734375 -1.53125 C 3.160156 -1.09375 3.738281 -0.875 4.46875 -0.875 C 5.03125 -0.875 5.476562 -0.972656 5.8125 -1.171875 C 6.15625 -1.367188 6.421875 -1.679688 6.609375 -2.109375 L 6.765625 -2.109375 L 7.5 -1.65625 C 7.28125 -1.09375 6.921875 -0.648438 6.421875 -0.328125 C 5.929688 -0.015625 5.28125 0.140625 4.46875 0.140625 C 3.71875 0.140625 3.070312 -0.00390625 2.53125 -0.296875 C 2 -0.585938 1.585938 -1.035156 1.296875 -1.640625 C 1.003906 -2.242188 0.859375 -2.992188 0.859375 -3.890625 C 0.859375 -4.765625 1.007812 -5.503906 1.3125 -6.109375 C 1.625 -6.722656 2.046875 -7.175781 2.578125 -7.46875 C 3.109375 -7.769531 3.71875 -7.921875 4.40625 -7.921875 C 5.40625 -7.921875 6.179688 -7.640625 6.734375 -7.078125 C 7.296875 -6.515625 7.578125 -5.679688 7.578125 -4.578125 C 7.578125 -4.148438 7.570312 -3.859375 7.5625 -3.703125 Z M 6.453125 -4.578125 C 6.429688 -5.410156 6.242188 -6.015625 5.890625 -6.390625 C 5.546875 -6.765625 5.050781 -6.953125 4.40625 -6.953125 C 3.726562 -6.953125 3.191406 -6.757812 2.796875 -6.375 C 2.410156 -6 2.175781 -5.398438 2.09375 -4.578125 Z M 6.453125 -4.578125 "/></g></g></g><g fill="#ffffff" fill-opacity="1"><g transform="translate(103.750612, 43.220409)"><g><path d="M 3.546875 0.140625 C 3.054688 0.140625 2.601562 0.078125 2.1875 -0.046875 C 1.769531 -0.171875 1.414062 -0.347656 1.125 -0.578125 C 0.84375 -0.804688 0.644531 -1.0625 0.53125 -1.34375 L 1.203125 -2.046875 L 1.359375 -2.046875 C 1.609375 -1.660156 1.910156 -1.367188 2.265625 -1.171875 C 2.628906 -0.972656 3.054688 -0.875 3.546875 -0.875 C 4.117188 -0.875 4.550781 -0.984375 4.84375 -1.203125 C 5.144531 -1.429688 5.296875 -1.75 5.296875 -2.15625 C 5.296875 -2.457031 5.207031 -2.707031 5.03125 -2.90625 C 4.851562 -3.101562 4.5625 -3.253906 4.15625 -3.359375 L 2.84375 -3.6875 C 2.144531 -3.851562 1.632812 -4.117188 1.3125 -4.484375 C 0.988281 -4.847656 0.828125 -5.300781 0.828125 -5.84375 C 0.828125 -6.269531 0.929688 -6.640625 1.140625 -6.953125 C 1.359375 -7.265625 1.671875 -7.503906 2.078125 -7.671875 C 2.484375 -7.835938 2.96875 -7.921875 3.53125 -7.921875 C 4.25 -7.921875 4.8125 -7.820312 5.21875 -7.625 C 5.632812 -7.425781 5.957031 -7.144531 6.1875 -6.78125 L 5.53125 -6.15625 L 5.390625 -6.15625 C 5.140625 -6.4375 4.867188 -6.640625 4.578125 -6.765625 C 4.285156 -6.898438 3.9375 -6.96875 3.53125 -6.96875 C 3.019531 -6.96875 2.628906 -6.875 2.359375 -6.6875 C 2.085938 -6.507812 1.953125 -6.242188 1.953125 -5.890625 C 1.953125 -5.578125 2.046875 -5.320312 2.234375 -5.125 C 2.429688 -4.9375 2.769531 -4.785156 3.25 -4.671875 L 4.53125 -4.359375 C 5.207031 -4.191406 5.695312 -3.921875 6 -3.546875 C 6.300781 -3.179688 6.453125 -2.722656 6.453125 -2.171875 C 6.453125 -1.710938 6.34375 -1.304688 6.125 -0.953125 C 5.90625 -0.609375 5.578125 -0.335938 5.140625 -0.140625 C 4.703125 0.046875 4.171875 0.140625 3.546875 0.140625 Z M 3.546875 0.140625 "/></g></g></g><g fill="#ffffff" fill-opacity="1"><g transform="translate(110.937352, 43.220409)"><g><path d="M 5.265625 -1.234375 L 5.625 -0.40625 C 5.4375 -0.226562 5.191406 -0.09375 4.890625 0 C 4.597656 0.09375 4.28125 0.140625 3.9375 0.140625 C 2.445312 0.140625 1.703125 -0.609375 1.703125 -2.109375 L 1.703125 -6.84375 L 0.359375 -6.84375 L 0.359375 -7.78125 L 1.703125 -7.78125 L 1.703125 -9.421875 L 2.859375 -9.609375 L 2.859375 -7.78125 L 5.359375 -7.78125 L 5.359375 -6.84375 L 2.859375 -6.84375 L 2.859375 -2.21875 C 2.859375 -1.320312 3.242188 -0.875 4.015625 -0.875 C 4.441406 -0.875 4.804688 -0.992188 5.109375 -1.234375 Z M 5.265625 -1.234375 "/></g></g></g><g fill="#ffffff" fill-opacity="1"><g transform="translate(116.855844, 43.220409)"><g><path d="M 3.546875 0.140625 C 3.054688 0.140625 2.601562 0.078125 2.1875 -0.046875 C 1.769531 -0.171875 1.414062 -0.347656 1.125 -0.578125 C 0.84375 -0.804688 0.644531 -1.0625 0.53125 -1.34375 L 1.203125 -2.046875 L 1.359375 -2.046875 C 1.609375 -1.660156 1.910156 -1.367188 2.265625 -1.171875 C 2.628906 -0.972656 3.054688 -0.875 3.546875 -0.875 C 4.117188 -0.875 4.550781 -0.984375 4.84375 -1.203125 C 5.144531 -1.429688 5.296875 -1.75 5.296875 -2.15625 C 5.296875 -2.457031 5.207031 -2.707031 5.03125 -2.90625 C 4.851562 -3.101562 4.5625 -3.253906 4.15625 -3.359375 L 2.84375 -3.6875 C 2.144531 -3.851562 1.632812 -4.117188 1.3125 -4.484375 C 0.988281 -4.847656 0.828125 -5.300781 0.828125 -5.84375 C 0.828125 -6.269531 0.929688 -6.640625 1.140625 -6.953125 C 1.359375 -7.265625 1.671875 -7.503906 2.078125 -7.671875 C 2.484375 -7.835938 2.96875 -7.921875 3.53125 -7.921875 C 4.25 -7.921875 4.8125 -7.820312 5.21875 -7.625 C 5.632812 -7.425781 5.957031 -7.144531 6.1875 -6.78125 L 5.53125 -6.15625 L 5.390625 -6.15625 C 5.140625 -6.4375 4.867188 -6.640625 4.578125 -6.765625 C 4.285156 -6.898438 3.9375 -6.96875 3.53125 -6.96875 C 3.019531 -6.96875 2.628906 -6.875 2.359375 -6.6875 C 2.085938 -6.507812 1.953125 -6.242188 1.953125 -5.890625 C 1.953125 -5.578125 2.046875 -5.320312 2.234375 -5.125 C 2.429688 -4.9375 2.769531 -4.785156 3.25 -4.671875 L 4.53125 -4.359375 C 5.207031 -4.191406 5.695312 -3.921875 6 -3.546875 C 6.300781 -3.179688 6.453125 -2.722656 6.453125 -2.171875 C 6.453125 -1.710938 6.34375 -1.304688 6.125 -0.953125 C 5.90625 -0.609375 5.578125 -0.335938 5.140625 -0.140625 C 4.703125 0.046875 4.171875 0.140625 3.546875 0.140625 Z M 3.546875 0.140625 "/></g></g></g><g fill="#ffffff" fill-opacity="1"><g transform="translate(124.042584, 43.220409)"><g/></g></g><g fill="#ffffff" fill-opacity="1"><g transform="translate(127.579587, 43.220409)"><g><path d="M 3.203125 0.140625 C 2.441406 0.140625 1.84375 -0.0546875 1.40625 -0.453125 C 0.976562 -0.847656 0.765625 -1.421875 0.765625 -2.171875 C 0.765625 -2.628906 0.859375 -3.015625 1.046875 -3.328125 C 1.242188 -3.648438 1.539062 -3.910156 1.9375 -4.109375 C 2.332031 -4.304688 2.851562 -4.457031 3.5 -4.5625 C 4.0625 -4.65625 4.488281 -4.757812 4.78125 -4.875 C 5.082031 -5 5.28125 -5.132812 5.375 -5.28125 C 5.476562 -5.425781 5.53125 -5.609375 5.53125 -5.828125 C 5.53125 -6.179688 5.410156 -6.453125 5.171875 -6.640625 C 4.929688 -6.828125 4.539062 -6.921875 4 -6.921875 C 3.5 -6.921875 3.066406 -6.820312 2.703125 -6.625 C 2.347656 -6.4375 2.019531 -6.148438 1.71875 -5.765625 L 1.578125 -5.765625 L 1.015625 -6.5625 C 1.347656 -6.976562 1.765625 -7.304688 2.265625 -7.546875 C 2.773438 -7.796875 3.351562 -7.921875 4 -7.921875 C 4.914062 -7.921875 5.59375 -7.71875 6.03125 -7.3125 C 6.46875 -6.914062 6.6875 -6.363281 6.6875 -5.65625 L 6.6875 -1.53125 C 6.6875 -1.09375 6.867188 -0.875 7.234375 -0.875 C 7.359375 -0.875 7.472656 -0.894531 7.578125 -0.9375 L 7.6875 -0.921875 L 7.8125 -0.125 C 7.726562 -0.0625 7.617188 -0.015625 7.484375 0.015625 C 7.347656 0.046875 7.207031 0.0625 7.0625 0.0625 C 6.632812 0.0625 6.3125 -0.03125 6.09375 -0.21875 C 5.875 -0.40625 5.734375 -0.6875 5.671875 -1.0625 L 5.515625 -1.078125 C 5.296875 -0.660156 5 -0.351562 4.625 -0.15625 C 4.25 0.0390625 3.773438 0.140625 3.203125 0.140625 Z M 3.46875 -0.765625 C 3.894531 -0.765625 4.265625 -0.863281 4.578125 -1.0625 C 4.898438 -1.269531 5.144531 -1.550781 5.3125 -1.90625 C 5.476562 -2.269531 5.5625 -2.691406 5.5625 -3.171875 L 5.5625 -4.15625 L 5.4375 -4.1875 C 5.257812 -4.0625 5.046875 -3.957031 4.796875 -3.875 C 4.546875 -3.789062 4.195312 -3.71875 3.75 -3.65625 C 3.300781 -3.59375 2.941406 -3.492188 2.671875 -3.359375 C 2.410156 -3.234375 2.222656 -3.070312 2.109375 -2.875 C 2.003906 -2.6875 1.953125 -2.453125 1.953125 -2.171875 C 1.953125 -1.710938 2.082031 -1.363281 2.34375 -1.125 C 2.613281 -0.882812 2.988281 -0.765625 3.46875 -0.765625 Z M 3.46875 -0.765625 "/></g></g></g><g fill="#ffffff" fill-opacity="1"><g transform="translate(135.618877, 43.220409)"><g><path d="M 5.265625 -1.234375 L 5.625 -0.40625 C 5.4375 -0.226562 5.191406 -0.09375 4.890625 0 C 4.597656 0.09375 4.28125 0.140625 3.9375 0.140625 C 2.445312 0.140625 1.703125 -0.609375 1.703125 -2.109375 L 1.703125 -6.84375 L 0.359375 -6.84375 L 0.359375 -7.78125 L 1.703125 -7.78125 L 1.703125 -9.421875 L 2.859375 -9.609375 L 2.859375 -7.78125 L 5.359375 -7.78125 L 5.359375 -6.84375 L 2.859375 -6.84375 L 2.859375 -2.21875 C 2.859375 -1.320312 3.242188 -0.875 4.015625 -0.875 C 4.441406 -0.875 4.804688 -0.992188 5.109375 -1.234375 Z M 5.265625 -1.234375 "/></g></g></g><g fill="#ffffff" fill-opacity="1"><g transform="translate(141.537369, 43.220409)"><g/></g></g><g fill="#ffffff" fill-opacity="1"><g transform="translate(145.074373, 43.220409)"><g><path d="M 3.203125 0.140625 C 2.441406 0.140625 1.84375 -0.0546875 1.40625 -0.453125 C 0.976562 -0.847656 0.765625 -1.421875 0.765625 -2.171875 C 0.765625 -2.628906 0.859375 -3.015625 1.046875 -3.328125 C 1.242188 -3.648438 1.539062 -3.910156 1.9375 -4.109375 C 2.332031 -4.304688 2.851562 -4.457031 3.5 -4.5625 C 4.0625 -4.65625 4.488281 -4.757812 4.78125 -4.875 C 5.082031 -5 5.28125 -5.132812 5.375 -5.28125 C 5.476562 -5.425781 5.53125 -5.609375 5.53125 -5.828125 C 5.53125 -6.179688 5.410156 -6.453125 5.171875 -6.640625 C 4.929688 -6.828125 4.539062 -6.921875 4 -6.921875 C 3.5 -6.921875 3.066406 -6.820312 2.703125 -6.625 C 2.347656 -6.4375 2.019531 -6.148438 1.71875 -5.765625 L 1.578125 -5.765625 L 1.015625 -6.5625 C 1.347656 -6.976562 1.765625 -7.304688 2.265625 -7.546875 C 2.773438 -7.796875 3.351562 -7.921875 4 -7.921875 C 4.914062 -7.921875 5.59375 -7.71875 6.03125 -7.3125 C 6.46875 -6.914062 6.6875 -6.363281 6.6875 -5.65625 L 6.6875 -1.53125 C 6.6875 -1.09375 6.867188 -0.875 7.234375 -0.875 C 7.359375 -0.875 7.472656 -0.894531 7.578125 -0.9375 L 7.6875 -0.921875 L 7.8125 -0.125 C 7.726562 -0.0625 7.617188 -0.015625 7.484375 0.015625 C 7.347656 0.046875 7.207031 0.0625 7.0625 0.0625 C 6.632812 0.0625 6.3125 -0.03125 6.09375 -0.21875 C 5.875 -0.40625 5.734375 -0.6875 5.671875 -1.0625 L 5.515625 -1.078125 C 5.296875 -0.660156 5 -0.351562 4.625 -0.15625 C 4.25 0.0390625 3.773438 0.140625 3.203125 0.140625 Z M 3.46875 -0.765625 C 3.894531 -0.765625 4.265625 -0.863281 4.578125 -1.0625 C 4.898438 -1.269531 5.144531 -1.550781 5.3125 -1.90625 C 5.476562 -2.269531 5.5625 -2.691406 5.5625 -3.171875 L 5.5625 -4.15625 L 5.4375 -4.1875 C 5.257812 -4.0625 5.046875 -3.957031 4.796875 -3.875 C 4.546875 -3.789062 4.195312 -3.71875 3.75 -3.65625 C 3.300781 -3.59375 2.941406 -3.492188 2.671875 -3.359375 C 2.410156 -3.234375 2.222656 -3.070312 2.109375 -2.875 C 2.003906 -2.6875 1.953125 -2.453125 1.953125 -2.171875 C 1.953125 -1.710938 2.082031 -1.363281 2.34375 -1.125 C 2.613281 -0.882812 2.988281 -0.765625 3.46875 -0.765625 Z M 3.46875 -0.765625 "/></g></g></g><g fill="#ffffff" fill-opacity="1"><g transform="translate(153.113663, 43.220409)"><g/></g></g><g fill="#ffffff" fill-opacity="1"><g transform="translate(156.650666, 43.220409)"><g><path d="M 3.546875 0.140625 C 3.054688 0.140625 2.601562 0.078125 2.1875 -0.046875 C 1.769531 -0.171875 1.414062 -0.347656 1.125 -0.578125 C 0.84375 -0.804688 0.644531 -1.0625 0.53125 -1.34375 L 1.203125 -2.046875 L 1.359375 -2.046875 C 1.609375 -1.660156 1.910156 -1.367188 2.265625 -1.171875 C 2.628906 -0.972656 3.054688 -0.875 3.546875 -0.875 C 4.117188 -0.875 4.550781 -0.984375 4.84375 -1.203125 C 5.144531 -1.429688 5.296875 -1.75 5.296875 -2.15625 C 5.296875 -2.457031 5.207031 -2.707031 5.03125 -2.90625 C 4.851562 -3.101562 4.5625 -3.253906 4.15625 -3.359375 L 2.84375 -3.6875 C 2.144531 -3.851562 1.632812 -4.117188 1.3125 -4.484375 C 0.988281 -4.847656 0.828125 -5.300781 0.828125 -5.84375 C 0.828125 -6.269531 0.929688 -6.640625 1.140625 -6.953125 C 1.359375 -7.265625 1.671875 -7.503906 2.078125 -7.671875 C 2.484375 -7.835938 2.96875 -7.921875 3.53125 -7.921875 C 4.25 -7.921875 4.8125 -7.820312 5.21875 -7.625 C 5.632812 -7.425781 5.957031 -7.144531 6.1875 -6.78125 L 5.53125 -6.15625 L 5.390625 -6.15625 C 5.140625 -6.4375 4.867188 -6.640625 4.578125 -6.765625 C 4.285156 -6.898438 3.9375 -6.96875 3.53125 -6.96875 C 3.019531 -6.96875 2.628906 -6.875 2.359375 -6.6875 C 2.085938 -6.507812 1.953125 -6.242188 1.953125 -5.890625 C 1.953125 -5.578125 2.046875 -5.320312 2.234375 -5.125 C 2.429688 -4.9375 2.769531 -4.785156 3.25 -4.671875 L 4.53125 -4.359375 C 5.207031 -4.191406 5.695312 -3.921875 6 -3.546875 C 6.300781 -3.179688 6.453125 -2.722656 6.453125 -2.171875 C 6.453125 -1.710938 6.34375 -1.304688 6.125 -0.953125 C 5.90625 -0.609375 5.578125 -0.335938 5.140625 -0.140625 C 4.703125 0.046875 4.171875 0.140625 3.546875 0.140625 Z M 3.546875 0.140625 "/></g></g></g><g fill="#ffffff" fill-opacity="1"><g transform="translate(163.837406, 43.220409)"><g><path d="M 4.46875 0.140625 C 3.78125 0.140625 3.160156 -0.015625 2.609375 -0.328125 C 2.066406 -0.640625 1.640625 -1.097656 1.328125 -1.703125 C 1.015625 -2.304688 0.859375 -3.035156 0.859375 -3.890625 C 0.859375 -4.734375 1.015625 -5.457031 1.328125 -6.0625 C 1.640625 -6.675781 2.066406 -7.140625 2.609375 -7.453125 C 3.160156 -7.765625 3.78125 -7.921875 4.46875 -7.921875 C 5.289062 -7.921875 5.941406 -7.765625 6.421875 -7.453125 C 6.910156 -7.148438 7.265625 -6.738281 7.484375 -6.21875 L 6.703125 -5.65625 L 6.5625 -5.65625 C 6.34375 -6.082031 6.066406 -6.394531 5.734375 -6.59375 C 5.410156 -6.789062 4.988281 -6.890625 4.46875 -6.890625 C 3.988281 -6.890625 3.566406 -6.773438 3.203125 -6.546875 C 2.835938 -6.328125 2.554688 -5.988281 2.359375 -5.53125 C 2.160156 -5.082031 2.0625 -4.535156 2.0625 -3.890625 C 2.0625 -3.234375 2.160156 -2.679688 2.359375 -2.234375 C 2.566406 -1.785156 2.847656 -1.445312 3.203125 -1.21875 C 3.566406 -0.988281 3.988281 -0.875 4.46875 -0.875 C 5 -0.875 5.441406 -0.992188 5.796875 -1.234375 C 6.160156 -1.484375 6.441406 -1.875 6.640625 -2.40625 L 6.78125 -2.40625 L 7.546875 -1.953125 C 7.335938 -1.304688 6.972656 -0.796875 6.453125 -0.421875 C 5.941406 -0.046875 5.28125 0.140625 4.46875 0.140625 Z M 4.46875 0.140625 "/></g></g></g><g fill="#ffffff" fill-opacity="1"><g transform="translate(171.848513, 43.220409)"><g><path d="M 3.203125 0.140625 C 2.441406 0.140625 1.84375 -0.0546875 1.40625 -0.453125 C 0.976562 -0.847656 0.765625 -1.421875 0.765625 -2.171875 C 0.765625 -2.628906 0.859375 -3.015625 1.046875 -3.328125 C 1.242188 -3.648438 1.539062 -3.910156 1.9375 -4.109375 C 2.332031 -4.304688 2.851562 -4.457031 3.5 -4.5625 C 4.0625 -4.65625 4.488281 -4.757812 4.78125 -4.875 C 5.082031 -5 5.28125 -5.132812 5.375 -5.28125 C 5.476562 -5.425781 5.53125 -5.609375 5.53125 -5.828125 C 5.53125 -6.179688 5.410156 -6.453125 5.171875 -6.640625 C 4.929688 -6.828125 4.539062 -6.921875 4 -6.921875 C 3.5 -6.921875 3.066406 -6.820312 2.703125 -6.625 C 2.347656 -6.4375 2.019531 -6.148438 1.71875 -5.765625 L 1.578125 -5.765625 L 1.015625 -6.5625 C 1.347656 -6.976562 1.765625 -7.304688 2.265625 -7.546875 C 2.773438 -7.796875 3.351562 -7.921875 4 -7.921875 C 4.914062 -7.921875 5.59375 -7.71875 6.03125 -7.3125 C 6.46875 -6.914062 6.6875 -6.363281 6.6875 -5.65625 L 6.6875 -1.53125 C 6.6875 -1.09375 6.867188 -0.875 7.234375 -0.875 C 7.359375 -0.875 7.472656 -0.894531 7.578125 -0.9375 L 7.6875 -0.921875 L 7.8125 -0.125 C 7.726562 -0.0625 7.617188 -0.015625 7.484375 0.015625 C 7.347656 0.046875 7.207031 0.0625 7.0625 0.0625 C 6.632812 0.0625 6.3125 -0.03125 6.09375 -0.21875 C 5.875 -0.40625 5.734375 -0.6875 5.671875 -1.0625 L 5.515625 -1.078125 C 5.296875 -0.660156 5 -0.351562 4.625 -0.15625 C 4.25 0.0390625 3.773438 0.140625 3.203125 0.140625 Z M 3.46875 -0.765625 C 3.894531 -0.765625 4.265625 -0.863281 4.578125 -1.0625 C 4.898438 -1.269531 5.144531 -1.550781 5.3125 -1.90625 C 5.476562 -2.269531 5.5625 -2.691406 5.5625 -3.171875 L 5.5625 -4.15625 L 5.4375 -4.1875 C 5.257812 -4.0625 5.046875 -3.957031 4.796875 -3.875 C 4.546875 -3.789062 4.195312 -3.71875 3.75 -3.65625 C 3.300781 -3.59375 2.941406 -3.492188 2.671875 -3.359375 C 2.410156 -3.234375 2.222656 -3.070312 2.109375 -2.875 C 2.003906 -2.6875 1.953125 -2.453125 1.953125 -2.171875 C 1.953125 -1.710938 2.082031 -1.363281 2.34375 -1.125 C 2.613281 -0.882812 2.988281 -0.765625 3.46875 -0.765625 Z M 3.46875 -0.765625 "/></g></g></g><g fill="#ffffff" fill-opacity="1"><g transform="translate(179.887803, 43.220409)"><g><path d="M 3.09375 0.140625 C 2.539062 0.140625 2.109375 -0.015625 1.796875 -0.328125 C 1.484375 -0.640625 1.328125 -1.101562 1.328125 -1.71875 L 1.328125 -10.90625 L 2.46875 -10.90625 L 2.46875 -1.796875 C 2.46875 -1.472656 2.53125 -1.238281 2.65625 -1.09375 C 2.78125 -0.945312 2.976562 -0.875 3.25 -0.875 C 3.40625 -0.875 3.566406 -0.898438 3.734375 -0.953125 L 3.828125 -0.9375 L 3.96875 -0.03125 C 3.875 0.03125 3.75 0.0703125 3.59375 0.09375 C 3.4375 0.125 3.269531 0.140625 3.09375 0.140625 Z M 3.09375 0.140625 "/></g></g></g><g fill="#ffffff" fill-opacity="1"><g transform="translate(184.115297, 43.220409)"><g><path d="M 7.40625 -3.625 L 2.0625 -3.625 C 2.09375 -2.675781 2.316406 -1.976562 2.734375 -1.53125 C 3.160156 -1.09375 3.738281 -0.875 4.46875 -0.875 C 5.03125 -0.875 5.476562 -0.972656 5.8125 -1.171875 C 6.15625 -1.367188 6.421875 -1.679688 6.609375 -2.109375 L 6.765625 -2.109375 L 7.5 -1.65625 C 7.28125 -1.09375 6.921875 -0.648438 6.421875 -0.328125 C 5.929688 -0.015625 5.28125 0.140625 4.46875 0.140625 C 3.71875 0.140625 3.070312 -0.00390625 2.53125 -0.296875 C 2 -0.585938 1.585938 -1.035156 1.296875 -1.640625 C 1.003906 -2.242188 0.859375 -2.992188 0.859375 -3.890625 C 0.859375 -4.765625 1.007812 -5.503906 1.3125 -6.109375 C 1.625 -6.722656 2.046875 -7.175781 2.578125 -7.46875 C 3.109375 -7.769531 3.71875 -7.921875 4.40625 -7.921875 C 5.40625 -7.921875 6.179688 -7.640625 6.734375 -7.078125 C 7.296875 -6.515625 7.578125 -5.679688 7.578125 -4.578125 C 7.578125 -4.148438 7.570312 -3.859375 7.5625 -3.703125 Z M 6.453125 -4.578125 C 6.429688 -5.410156 6.242188 -6.015625 5.890625 -6.390625 C 5.546875 -6.765625 5.050781 -6.953125 4.40625 -6.953125 C 3.726562 -6.953125 3.191406 -6.757812 2.796875 -6.375 C 2.410156 -6 2.175781 -5.398438 2.09375 -4.578125 Z M 6.453125 -4.578125 "/></g></g></g></svg>